<svg width="100" height="100" viewBox="0 0 100 100" fill="none" xmlns="http://www.w3.org/2000/svg">
  <circle cx="50" cy="50" r="45" fill="#f0f0f0" stroke="#333" stroke-width="2"/>
  <path d="M65 32C65 40.8366 58.1797 48 50 48C41.8203 48 35 40.8366 35 32C35 23.1634 41.8203 16 50 16C58.1797 16 65 23.1634 65 32Z" fill="#333"/>
  <path d="M28 62C28 53.7157 37.8 47 50 47C62.2 47 72 53.7157 72 62" stroke="#333" stroke-width="4" stroke-linecap="round"/>
  <path d="M25 75C25 72.2386 27.2386 70 30 70H70C72.7614 70 75 72.2386 75 75V82C75 84.7614 72.7614 87 70 87H30C27.2386 87 25 84.7614 25 82V75Z" fill="#333"/>
  <path d="M35 70V62" stroke="#333" stroke-width="2"/>
  <path d="M65 70V62" stroke="#333" stroke-width="2"/>
  <circle cx="32" cy="78" r="2" fill="white"/>
  <circle cx="42" cy="78" r="2" fill="white"/>
  <circle cx="52" cy="78" r="2" fill="white"/>
  <circle cx="62" cy="78" r="2" fill="white"/>
  <circle cx="72" cy="78" r="2" fill="white"/>
</svg>
